<svg width="38" height="39" viewBox="0 0 38 39" fill="none" xmlns="http://www.w3.org/2000/svg">
<path d="M35.5258 35.5124H28.4866C32.4823 33.2099 35.5042 29.5329 36.9888 25.1668C38.4734 20.8007 38.3195 16.0437 36.5556 11.7828C34.7917 7.52186 31.5384 4.04788 27.4022 2.00862C23.266 -0.0306343 18.5293 -0.495959 14.0753 0.699415C9.62137 1.89479 5.75418 4.66926 3.19487 8.50549C0.635559 12.3417 -0.441171 16.9778 0.165455 21.5493C0.772081 26.1208 3.02065 30.3157 6.49189 33.3517C9.96312 36.3877 14.4201 38.0576 19.0316 38.05H35.5258C35.8623 38.05 36.185 37.9163 36.423 37.6783C36.6609 37.4404 36.7946 37.1177 36.7946 36.7812C36.7946 36.4447 36.6609 36.122 36.423 35.884C36.185 35.6461 35.8623 35.5124 35.5258 35.5124ZM19.0316 5.06167C20.0354 5.06167 21.0166 5.35932 21.8512 5.91698C22.6858 6.47464 23.3363 7.26727 23.7204 8.19462C24.1046 9.12198 24.2051 10.1424 24.0092 11.1269C23.8134 12.1114 23.3301 13.0157 22.6203 13.7254C21.9105 14.4352 21.0062 14.9186 20.0217 15.1144C19.0373 15.3102 18.0168 15.2097 17.0895 14.8256C16.1621 14.4415 15.3695 13.791 14.8118 12.9564C14.2542 12.1218 13.9565 11.1406 13.9565 10.1368C13.9565 8.79078 14.4912 7.4999 15.443 6.54813C16.3948 5.59636 17.6856 5.06167 19.0316 5.06167ZM10.1502 24.0934C9.14641 24.0934 8.16518 23.7957 7.33059 23.2381C6.49599 22.6804 5.84549 21.8878 5.46137 20.9604C5.07725 20.0331 4.97674 19.0126 5.17257 18.0281C5.36839 17.0437 5.85175 16.1394 6.56152 15.4296C7.27129 14.7198 8.17559 14.2365 9.16007 14.0406C10.1445 13.8448 11.165 13.9453 12.0923 14.3295C13.0197 14.7136 13.8123 15.3641 14.37 16.1987C14.9276 17.0333 15.2253 18.0145 15.2253 19.0183C15.2253 20.3643 14.6906 21.6551 13.7388 22.6069C12.7871 23.5587 11.4962 24.0934 10.1502 24.0934ZM19.0316 32.9748C18.0279 32.9748 17.0467 32.6772 16.2121 32.1195C15.3775 31.5619 14.727 30.7692 14.3428 29.8419C13.9587 28.9145 13.8582 27.8941 14.054 26.9096C14.2499 25.9251 14.7332 25.0208 15.443 24.3111C16.1528 23.6013 17.0571 23.1179 18.0415 22.9221C19.026 22.7263 20.0464 22.8268 20.9738 23.2109C21.9012 23.595 22.6938 24.2455 23.2514 25.0801C23.8091 25.9147 24.1068 26.896 24.1068 27.8997C24.1068 29.2457 23.5721 30.5366 22.6203 31.4884C21.6685 32.4401 20.3776 32.9748 19.0316 32.9748ZM22.838 19.0183C22.838 18.0145 23.1356 17.0333 23.6933 16.1987C24.251 15.3641 25.0436 14.7136 25.9709 14.3295C26.8983 13.9453 27.9187 13.8448 28.9032 14.0406C29.8877 14.2365 30.792 14.7198 31.5018 15.4296C32.2115 16.1394 32.6949 17.0437 32.8907 18.0281C33.0865 19.0126 32.986 20.0331 32.6019 20.9604C32.2178 21.8878 31.5673 22.6804 30.7327 23.2381C29.8981 23.7957 28.9169 24.0934 27.9131 24.0934C26.5671 24.0934 25.2762 23.5587 24.3244 22.6069C23.3727 21.6551 22.838 20.3643 22.838 19.0183Z" fill="#232F3E"/>
</svg>
