<svg width="14" height="14" viewBox="0 0 14 14" fill="none" xmlns="http://www.w3.org/2000/svg">
<path d="M4.68474 4.47913L6.59574 0.693C6.63244 0.616834 6.68979 0.552504 6.76126 0.507333C6.83273 0.462163 6.91544 0.437967 6.99999 0.4375C7.16011 0.4375 7.32024 0.522375 7.40686 0.693L9.31786 4.47913L13.6036 5.08813C13.7104 5.10492 13.8082 5.15805 13.8804 5.23854C13.9526 5.31904 13.9949 5.42198 14 5.53C14.0061 5.60191 13.9959 5.67428 13.9701 5.7417C13.9444 5.80912 13.9037 5.86985 13.8512 5.91937L10.7686 8.85588L11.4949 12.9946C11.5631 13.3822 11.1799 13.6859 10.8421 13.5126L6.99999 11.5386L3.15961 13.5126C3.11944 13.5335 3.07639 13.5482 3.03186 13.5564C2.73261 13.6089 2.44736 13.3341 2.50686 12.9946L3.23311 8.85588L0.151364 5.91937C0.103454 5.87405 0.065372 5.81936 0.0394824 5.7587C0.0135927 5.69804 0.00044797 5.6327 0.000864071 5.56675C0.000909582 5.47351 0.0266428 5.38208 0.0752391 5.3025C0.109713 5.24481 0.156701 5.1956 0.212735 5.15849C0.268769 5.12139 0.332419 5.09734 0.398989 5.08813L4.68474 4.47913ZM6.99999 10.5236C7.07062 10.5233 7.14027 10.5401 7.20299 10.5726L10.4282 12.2299L9.82099 8.7675C9.80665 8.68787 9.81208 8.60594 9.8368 8.5289C9.86151 8.45185 9.90476 8.38206 9.96274 8.32563L12.5064 5.90188L8.96086 5.39788C8.88745 5.38679 8.81781 5.35807 8.75792 5.31418C8.69803 5.27029 8.64967 5.21254 8.61699 5.14587L7.00086 1.94513L6.99999 1.94775V10.5227V10.5236Z" fill="#FFC700"/>
</svg>
